<?xml version="1.0" encoding="UTF-8"?>
<svg xmlns="http://www.w3.org/2000/svg" xmlns:xlink="http://www.w3.org/1999/xlink" width="46px" height="46px" viewBox="0 0 46 46" version="1.1">
<g id="surface1">
<path style=" stroke:none;fill-rule:nonzero;fill:rgb(100%,100%,100%);fill-opacity:1;" d="M 27.324219 46.09375 C 18.214844 46.09375 9.152344 46.09375 0.09375 46.09375 C 0.09375 30.757812 0.09375 15.425781 0.09375 0.09375 C 15.425781 0.09375 30.757812 0.09375 46.09375 0.09375 C 46.09375 15.425781 46.09375 30.757812 46.09375 46.09375 C 39.851562 46.09375 33.609375 46.09375 27.324219 46.09375 M 11.050781 16.566406 C 9.527344 16.429688 8.28125 16.949219 7.347656 18.164062 C 6.855469 18.804688 6.574219 19.53125 6.558594 20.394531 C 7.207031 20.394531 7.800781 20.394531 8.398438 20.390625 C 9.457031 20.382812 10.089844 19.90625 10.390625 18.898438 C 10.421875 18.78125 10.484375 18.671875 10.546875 18.527344 C 10.835938 19.019531 11.019531 19.507812 11.355469 19.84375 C 11.6875 20.171875 12.175781 20.34375 12.691406 20.640625 C 12.457031 20.710938 12.316406 20.75 12.179688 20.796875 C 11.570312 21.007812 11.011719 21.359375 10.902344 22.007812 C 10.761719 22.851562 10.78125 23.726562 10.730469 24.621094 C 11.730469 24.621094 12.617188 24.652344 13.5 24.609375 C 14.203125 24.574219 14.609375 24.078125 14.621094 23.339844 C 14.632812 22.542969 14.601562 21.746094 14.628906 20.949219 C 14.714844 18.597656 13.160156 16.855469 11.050781 16.566406 M 6.539062 22.855469 C 6.539062 22.960938 6.539062 23.070312 6.539062 23.175781 C 6.542969 24.1875 6.984375 24.625 8.003906 24.628906 C 8.492188 24.632812 8.984375 24.628906 9.472656 24.628906 C 9.769531 24.628906 10.066406 24.628906 10.378906 24.628906 C 10.378906 23.875 10.410156 23.199219 10.371094 22.527344 C 10.320312 21.59375 9.761719 20.929688 8.859375 20.835938 C 8.109375 20.757812 7.34375 20.820312 6.539062 20.820312 C 6.539062 21.484375 6.539062 22.125 6.539062 22.855469 M 17.117188 22.019531 C 17.117188 22.082031 17.117188 22.144531 17.117188 22.203125 C 17.109375 22.503906 17.089844 22.804688 17.53125 22.820312 C 18 22.832031 17.988281 22.523438 17.984375 22.203125 C 17.980469 21.773438 17.984375 21.34375 17.984375 20.914062 C 18.25 21.121094 18.40625 21.34375 18.574219 21.558594 C 18.933594 22.027344 19.171875 22.023438 19.535156 21.539062 C 19.695312 21.324219 19.855469 21.105469 20.015625 20.890625 C 20.117188 21.390625 20.121094 21.871094 20.113281 22.347656 C 20.109375 22.640625 20.203125 22.8125 20.527344 22.820312 C 20.875 22.824219 20.980469 22.644531 20.980469 22.332031 C 20.972656 21.519531 20.992188 20.707031 20.96875 19.894531 C 20.960938 19.683594 20.878906 19.378906 20.730469 19.289062 C 20.449219 19.125 20.1875 19.296875 19.996094 19.566406 C 19.695312 19.984375 19.375 20.382812 19.039062 20.816406 C 18.667969 20.332031 18.363281 19.867188 17.988281 19.46875 C 17.855469 19.328125 17.558594 19.277344 17.347656 19.300781 C 17.253906 19.308594 17.132812 19.601562 17.128906 19.769531 C 17.105469 20.492188 17.117188 21.210938 17.117188 22.019531 M 26.273438 22.816406 C 26.554688 22.8125 26.691406 22.6875 26.6875 22.394531 C 26.679688 21.414062 26.683594 20.433594 26.6875 19.457031 C 26.6875 19.160156 26.546875 19.042969 26.265625 19.042969 C 25.988281 19.042969 25.828125 19.140625 25.835938 19.445312 C 25.847656 19.753906 25.839844 20.0625 25.839844 20.394531 C 24.96875 20.117188 24.304688 20.496094 24.132812 21.289062 C 23.96875 22.074219 24.703125 22.96875 25.410156 22.78125 C 25.707031 22.707031 25.941406 22.707031 26.273438 22.816406 M 38.296875 21.84375 C 38.296875 22.058594 38.277344 22.277344 38.3125 22.484375 C 38.332031 22.597656 38.441406 22.765625 38.53125 22.785156 C 38.699219 22.816406 38.949219 22.816406 39.042969 22.714844 C 39.164062 22.585938 39.171875 22.34375 39.242188 22.113281 C 39.472656 22.320312 39.679688 22.519531 39.898438 22.703125 C 40.101562 22.871094 40.300781 22.894531 40.492188 22.660156 C 40.675781 22.429688 40.707031 22.234375 40.445312 22.039062 C 40.238281 21.886719 40.054688 21.714844 39.886719 21.574219 C 39.996094 21.175781 40.800781 21.113281 40.316406 20.566406 C 39.796875 19.972656 39.609375 20.839844 39.167969 20.886719 C 39.167969 20.476562 39.167969 20.066406 39.167969 19.660156 C 39.167969 19.34375 39.191406 19.03125 38.71875 19.035156 C 38.273438 19.039062 38.296875 19.339844 38.296875 19.640625 C 38.296875 20.34375 38.296875 21.046875 38.296875 21.84375 M 33.179688 20.621094 C 33.132812 20.679688 33.078125 20.738281 33.035156 20.800781 C 32.726562 21.28125 32.738281 21.859375 33.066406 22.304688 C 33.421875 22.78125 33.761719 22.875 34.429688 22.679688 C 34.492188 22.660156 34.578125 22.695312 34.648438 22.726562 C 35.144531 22.957031 35.398438 22.796875 35.40625 22.246094 C 35.410156 21.738281 35.414062 21.234375 35.402344 20.730469 C 35.394531 20.277344 35.101562 20.113281 34.691406 20.304688 C 34.601562 20.347656 34.46875 20.40625 34.402344 20.371094 C 33.953125 20.132812 33.578125 20.265625 33.179688 20.621094 M 23.15625 22.84375 C 23.335938 22.714844 23.546875 22.605469 23.683594 22.4375 C 23.714844 22.398438 23.539062 22.09375 23.40625 22.039062 C 23.273438 21.980469 23.066406 22.066406 22.898438 22.113281 C 22.609375 22.191406 22.394531 22.140625 22.226562 21.808594 C 22.539062 21.808594 22.785156 21.796875 23.027344 21.808594 C 23.34375 21.828125 23.671875 21.824219 23.792969 21.46875 C 23.917969 21.085938 23.785156 20.738281 23.492188 20.472656 C 22.839844 19.878906 21.597656 20.246094 21.34375 21.105469 C 21.015625 22.199219 21.796875 22.988281 23.15625 22.84375 M 29.292969 19.957031 C 29.519531 19.957031 29.75 19.953125 29.980469 19.957031 C 30.234375 19.957031 30.382812 19.867188 30.375 19.578125 C 30.371094 19.316406 30.234375 19.230469 30 19.230469 C 29.109375 19.234375 28.222656 19.21875 27.332031 19.25 C 27.203125 19.253906 27.011719 19.449219 26.972656 19.585938 C 26.90625 19.859375 27.109375 19.957031 27.363281 19.957031 C 27.648438 19.953125 27.933594 19.953125 28.246094 19.953125 C 28.246094 20.789062 28.25 21.566406 28.242188 22.347656 C 28.238281 22.636719 28.316406 22.816406 28.648438 22.824219 C 28.996094 22.832031 29.097656 22.660156 29.09375 22.339844 C 29.082031 21.683594 29.082031 21.023438 29.09375 20.363281 C 29.097656 20.230469 29.160156 20.097656 29.292969 19.957031 M 37.917969 20.9375 C 37.863281 20.773438 37.863281 20.542969 37.75 20.453125 C 37.265625 20.070312 36.484375 20.179688 36.039062 20.648438 C 35.625 21.089844 35.585938 21.804688 35.949219 22.296875 C 36.324219 22.808594 37.105469 23 37.632812 22.695312 C 37.835938 22.578125 38.097656 22.445312 37.917969 22.128906 C 37.769531 21.875 37.589844 21.714844 37.242188 21.878906 C 37.097656 21.945312 36.824219 21.882812 36.691406 21.773438 C 36.605469 21.707031 36.605469 21.367188 36.6875 21.296875 C 36.820312 21.1875 37.09375 21.117188 37.242188 21.179688 C 37.546875 21.316406 37.730469 21.265625 37.917969 20.9375 M 32.289062 21.125 C 32.613281 20.964844 32.722656 20.636719 32.53125 20.40625 C 32.234375 20.046875 31.84375 20.242188 31.503906 20.386719 C 31.285156 20.3125 31.035156 20.234375 30.84375 20.304688 C 30.730469 20.347656 30.660156 20.625 30.648438 20.800781 C 30.625 21.320312 30.648438 21.84375 30.636719 22.363281 C 30.632812 22.664062 30.75 22.816406 31.066406 22.824219 C 31.378906 22.828125 31.515625 22.6875 31.507812 22.378906 C 31.5 22.152344 31.507812 21.921875 31.507812 21.691406 C 31.511719 21.070312 31.613281 20.992188 32.289062 21.125 M 13.8125 16.894531 C 13.8125 17.222656 13.992188 17.386719 14.296875 17.320312 C 14.421875 17.292969 14.582031 17.113281 14.597656 16.988281 C 14.609375 16.863281 14.449219 16.597656 14.386719 16.605469 C 14.195312 16.625 14.015625 16.746094 13.8125 16.894531 Z M 13.8125 16.894531 "/>
<path style=" stroke:none;fill-rule:nonzero;fill:rgb(38.039216%,44.313726%,100%);fill-opacity:1;" d="M 11.089844 16.570312 C 13.160156 16.855469 14.714844 18.597656 14.628906 20.949219 C 14.601562 21.746094 14.632812 22.542969 14.621094 23.339844 C 14.609375 24.078125 14.203125 24.574219 13.5 24.609375 C 12.617188 24.652344 11.730469 24.621094 10.730469 24.621094 C 10.78125 23.726562 10.761719 22.851562 10.902344 22.007812 C 11.011719 21.359375 11.570312 21.007812 12.179688 20.796875 C 12.316406 20.75 12.457031 20.710938 12.691406 20.640625 C 12.175781 20.34375 11.6875 20.171875 11.355469 19.84375 C 11.019531 19.507812 10.835938 19.019531 10.546875 18.527344 C 10.484375 18.671875 10.421875 18.78125 10.390625 18.898438 C 10.089844 19.90625 9.457031 20.382812 8.398438 20.390625 C 7.800781 20.394531 7.207031 20.394531 6.558594 20.394531 C 6.574219 19.53125 6.855469 18.804688 7.347656 18.164062 C 8.28125 16.949219 9.527344 16.429688 11.089844 16.570312 Z M 11.089844 16.570312 "/>
<path style=" stroke:none;fill-rule:nonzero;fill:rgb(38.039216%,44.313726%,100%);fill-opacity:1;" d="M 6.539062 22.808594 C 6.539062 22.125 6.539062 21.484375 6.539062 20.820312 C 7.34375 20.820312 8.109375 20.757812 8.859375 20.835938 C 9.761719 20.929688 10.320312 21.59375 10.371094 22.527344 C 10.410156 23.199219 10.378906 23.875 10.378906 24.628906 C 10.066406 24.628906 9.769531 24.628906 9.472656 24.628906 C 8.984375 24.628906 8.492188 24.632812 8.003906 24.628906 C 6.984375 24.625 6.542969 24.1875 6.539062 23.175781 C 6.539062 23.070312 6.539062 22.960938 6.539062 22.808594 Z M 6.539062 22.808594 "/>
<path style=" stroke:none;fill-rule:nonzero;fill:rgb(1.960784%,6.27451%,43.921569%);fill-opacity:1;" d="M 17.117188 21.976562 C 17.117188 21.210938 17.105469 20.492188 17.128906 19.769531 C 17.132812 19.601562 17.253906 19.308594 17.347656 19.300781 C 17.558594 19.277344 17.855469 19.328125 17.988281 19.46875 C 18.363281 19.867188 18.667969 20.332031 19.039062 20.816406 C 19.375 20.382812 19.695312 19.984375 19.996094 19.566406 C 20.1875 19.296875 20.449219 19.125 20.730469 19.289062 C 20.878906 19.378906 20.960938 19.683594 20.96875 19.894531 C 20.992188 20.707031 20.972656 21.519531 20.980469 22.332031 C 20.980469 22.644531 20.875 22.824219 20.527344 22.820312 C 20.203125 22.8125 20.109375 22.640625 20.113281 22.347656 C 20.121094 21.871094 20.117188 21.390625 20.015625 20.890625 C 19.855469 21.105469 19.695312 21.324219 19.535156 21.539062 C 19.171875 22.023438 18.933594 22.027344 18.574219 21.558594 C 18.40625 21.34375 18.25 21.121094 17.984375 20.914062 C 17.984375 21.34375 17.980469 21.773438 17.984375 22.203125 C 17.988281 22.523438 18 22.832031 17.53125 22.820312 C 17.089844 22.804688 17.109375 22.503906 17.117188 22.203125 C 17.117188 22.144531 17.117188 22.082031 17.117188 21.976562 Z M 17.117188 21.976562 "/>
<path style=" stroke:none;fill-rule:nonzero;fill:rgb(1.960784%,6.27451%,43.921569%);fill-opacity:1;" d="M 26.238281 22.816406 C 25.941406 22.707031 25.707031 22.707031 25.410156 22.78125 C 24.703125 22.96875 23.96875 22.074219 24.132812 21.289062 C 24.304688 20.496094 24.96875 20.117188 25.839844 20.394531 C 25.839844 20.0625 25.847656 19.753906 25.835938 19.445312 C 25.828125 19.140625 25.988281 19.042969 26.265625 19.042969 C 26.546875 19.042969 26.6875 19.160156 26.6875 19.457031 C 26.683594 20.433594 26.679688 21.414062 26.6875 22.394531 C 26.691406 22.6875 26.554688 22.8125 26.238281 22.816406 M 24.992188 21.4375 C 24.941406 21.738281 25.09375 21.933594 25.371094 21.9375 C 25.507812 21.941406 25.738281 21.777344 25.761719 21.65625 C 25.792969 21.507812 25.660156 21.195312 25.578125 21.1875 C 25.394531 21.171875 25.203125 21.304688 24.992188 21.4375 Z M 24.992188 21.4375 "/>
<path style=" stroke:none;fill-rule:nonzero;fill:rgb(2.745098%,7.058824%,44.313726%);fill-opacity:1;" d="M 38.296875 21.796875 C 38.296875 21.046875 38.296875 20.34375 38.296875 19.640625 C 38.296875 19.339844 38.273438 19.039062 38.71875 19.035156 C 39.191406 19.03125 39.167969 19.34375 39.167969 19.660156 C 39.167969 20.066406 39.167969 20.476562 39.167969 20.886719 C 39.609375 20.839844 39.796875 19.972656 40.316406 20.566406 C 40.800781 21.113281 39.996094 21.175781 39.886719 21.574219 C 40.054688 21.714844 40.238281 21.886719 40.445312 22.039062 C 40.707031 22.234375 40.675781 22.429688 40.492188 22.660156 C 40.300781 22.894531 40.101562 22.871094 39.898438 22.703125 C 39.679688 22.519531 39.472656 22.320312 39.242188 22.113281 C 39.171875 22.34375 39.164062 22.585938 39.042969 22.714844 C 38.949219 22.816406 38.699219 22.816406 38.53125 22.785156 C 38.441406 22.765625 38.332031 22.597656 38.3125 22.484375 C 38.277344 22.277344 38.296875 22.058594 38.296875 21.796875 Z M 38.296875 21.796875 "/>
<path style=" stroke:none;fill-rule:nonzero;fill:rgb(2.745098%,7.058824%,44.313726%);fill-opacity:1;" d="M 33.203125 20.597656 C 33.578125 20.265625 33.953125 20.132812 34.402344 20.371094 C 34.46875 20.40625 34.601562 20.347656 34.691406 20.304688 C 35.101562 20.113281 35.394531 20.277344 35.402344 20.730469 C 35.414062 21.234375 35.410156 21.738281 35.40625 22.246094 C 35.398438 22.796875 35.144531 22.957031 34.648438 22.726562 C 34.578125 22.695312 34.492188 22.660156 34.429688 22.679688 C 33.761719 22.875 33.421875 22.78125 33.066406 22.304688 C 32.738281 21.859375 32.726562 21.28125 33.035156 20.800781 C 33.078125 20.738281 33.132812 20.679688 33.203125 20.597656 M 33.890625 21.160156 C 33.664062 21.328125 33.5625 21.554688 33.773438 21.773438 C 33.875 21.875 34.121094 21.941406 34.242188 21.886719 C 34.363281 21.835938 34.492188 21.609375 34.480469 21.46875 C 34.453125 21.1875 34.25 21.058594 33.890625 21.160156 Z M 33.890625 21.160156 "/>
<path style=" stroke:none;fill-rule:nonzero;fill:rgb(2.745098%,7.058824%,44.313726%);fill-opacity:1;" d="M 23.117188 22.851562 C 21.796875 22.988281 21.015625 22.199219 21.34375 21.105469 C 21.597656 20.246094 22.839844 19.878906 23.492188 20.472656 C 23.785156 20.738281 23.917969 21.085938 23.792969 21.46875 C 23.671875 21.824219 23.34375 21.828125 23.027344 21.808594 C 22.785156 21.796875 22.539062 21.808594 22.226562 21.808594 C 22.394531 22.140625 22.609375 22.191406 22.898438 22.113281 C 23.066406 22.066406 23.273438 21.980469 23.40625 22.039062 C 23.539062 22.09375 23.714844 22.398438 23.683594 22.4375 C 23.546875 22.605469 23.335938 22.714844 23.117188 22.851562 M 22.246094 21.25 C 22.476562 21.292969 22.710938 21.335938 23.007812 21.386719 C 22.808594 20.890625 22.679688 20.871094 22.246094 21.25 Z M 22.246094 21.25 "/>
<path style=" stroke:none;fill-rule:nonzero;fill:rgb(2.745098%,7.058824%,44.313726%);fill-opacity:1;" d="M 29.246094 19.960938 C 29.160156 20.097656 29.097656 20.230469 29.09375 20.363281 C 29.082031 21.023438 29.082031 21.683594 29.09375 22.339844 C 29.097656 22.660156 28.996094 22.832031 28.648438 22.824219 C 28.316406 22.816406 28.238281 22.636719 28.242188 22.347656 C 28.25 21.566406 28.246094 20.789062 28.246094 19.953125 C 27.933594 19.953125 27.648438 19.953125 27.363281 19.957031 C 27.109375 19.957031 26.90625 19.859375 26.972656 19.585938 C 27.011719 19.449219 27.203125 19.253906 27.332031 19.25 C 28.222656 19.21875 29.109375 19.234375 30 19.230469 C 30.234375 19.230469 30.371094 19.316406 30.375 19.578125 C 30.382812 19.867188 30.234375 19.957031 29.980469 19.957031 C 29.75 19.953125 29.519531 19.957031 29.246094 19.960938 Z M 29.246094 19.960938 "/>
<path style=" stroke:none;fill-rule:nonzero;fill:rgb(2.745098%,7.058824%,44.313726%);fill-opacity:1;" d="M 37.90625 20.96875 C 37.730469 21.265625 37.546875 21.316406 37.242188 21.179688 C 37.09375 21.117188 36.820312 21.1875 36.6875 21.296875 C 36.605469 21.367188 36.605469 21.707031 36.691406 21.773438 C 36.824219 21.882812 37.097656 21.945312 37.242188 21.878906 C 37.589844 21.714844 37.769531 21.875 37.917969 22.128906 C 38.097656 22.445312 37.835938 22.578125 37.632812 22.695312 C 37.105469 23 36.324219 22.808594 35.949219 22.296875 C 35.585938 21.804688 35.625 21.089844 36.039062 20.648438 C 36.484375 20.179688 37.265625 20.070312 37.75 20.453125 C 37.863281 20.542969 37.863281 20.773438 37.90625 20.96875 Z M 37.90625 20.96875 "/>
<path style=" stroke:none;fill-rule:nonzero;fill:rgb(2.745098%,7.058824%,44.313726%);fill-opacity:1;" d="M 32.253906 21.128906 C 31.613281 20.992188 31.511719 21.070312 31.507812 21.691406 C 31.507812 21.921875 31.5 22.152344 31.507812 22.378906 C 31.515625 22.6875 31.378906 22.828125 31.066406 22.824219 C 30.75 22.816406 30.632812 22.664062 30.636719 22.363281 C 30.648438 21.84375 30.625 21.320312 30.648438 20.800781 C 30.660156 20.625 30.730469 20.347656 30.84375 20.304688 C 31.035156 20.234375 31.285156 20.3125 31.503906 20.386719 C 31.84375 20.242188 32.234375 20.046875 32.53125 20.40625 C 32.722656 20.636719 32.613281 20.964844 32.253906 21.128906 Z M 32.253906 21.128906 "/>
<path style=" stroke:none;fill-rule:nonzero;fill:rgb(38.039216%,44.313726%,100%);fill-opacity:1;" d="M 13.820312 16.859375 C 14.015625 16.746094 14.195312 16.625 14.386719 16.605469 C 14.449219 16.597656 14.609375 16.863281 14.597656 16.988281 C 14.582031 17.113281 14.421875 17.292969 14.296875 17.320312 C 13.992188 17.386719 13.8125 17.222656 13.820312 16.859375 Z M 13.820312 16.859375 "/>
<path style=" stroke:none;fill-rule:nonzero;fill:rgb(100%,100%,100%);fill-opacity:1;" d="M 25.003906 21.40625 C 25.203125 21.304688 25.394531 21.171875 25.578125 21.1875 C 25.660156 21.195312 25.792969 21.507812 25.761719 21.65625 C 25.738281 21.777344 25.507812 21.941406 25.371094 21.9375 C 25.09375 21.933594 24.941406 21.738281 25.003906 21.40625 Z M 25.003906 21.40625 "/>
<path style=" stroke:none;fill-rule:nonzero;fill:rgb(100%,100%,100%);fill-opacity:1;" d="M 33.921875 21.148438 C 34.25 21.058594 34.453125 21.1875 34.480469 21.46875 C 34.492188 21.609375 34.363281 21.835938 34.242188 21.886719 C 34.121094 21.941406 33.875 21.875 33.773438 21.773438 C 33.5625 21.554688 33.664062 21.328125 33.921875 21.148438 Z M 33.921875 21.148438 "/>
<path style=" stroke:none;fill-rule:nonzero;fill:rgb(100%,100%,100%);fill-opacity:1;" d="M 22.261719 21.214844 C 22.679688 20.871094 22.808594 20.890625 23.007812 21.386719 C 22.710938 21.335938 22.476562 21.292969 22.261719 21.214844 Z M 22.261719 21.214844 "/>
</g>
</svg>
