<svg version="1.1" id="Layer_1" xmlns="http://www.w3.org/2000/svg" xmlns:xlink="http://www.w3.org/1999/xlink" x="0px" y="0px"
	 width="100%" viewBox="0 0 500 500" enable-background="new 0 0 500 500" xml:space="preserve">
<path fill="#FFFFFF" opacity="1.000000" stroke="none" 
	d="
M297.000000,501.000000 
	C198.000031,501.000000 99.500046,501.000000 1.000053,501.000000 
	C1.000035,334.333405 1.000035,167.666794 1.000018,1.000142 
	C167.666565,1.000095 334.333130,1.000095 500.999756,1.000047 
	C500.999847,167.666519 500.999847,334.333038 500.999939,500.999786 
	C433.166656,501.000000 365.333344,501.000000 297.000000,501.000000 
M120.110519,180.055710 
	C103.551544,178.589432 90.009644,184.251038 79.853149,197.452682 
	C74.502716,204.407288 71.455994,212.285126 71.297203,221.658539 
	C78.323494,221.658539 84.796303,221.695618 91.268539,221.650391 
	C102.774498,221.569977 109.661934,216.355560 112.926086,205.396622 
	C113.299812,204.141891 113.947327,202.968704 114.627739,201.385849 
	C117.792503,206.730209 119.771294,212.057648 123.431747,215.690781 
	C127.041061,219.273163 132.352905,221.140213 137.938004,224.345306 
	C135.392975,225.132751 133.875549,225.559891 132.386627,226.070236 
	C125.750626,228.344757 119.697197,232.184570 118.511703,239.198288 
	C116.957886,248.391068 117.201431,257.887634 116.652199,267.602051 
	C127.498032,267.602051 137.150009,267.965485 146.760010,267.486633 
	C154.392014,267.106293 158.804810,261.704773 158.921570,253.690475 
	C159.047775,245.027985 158.692276,236.352875 159.003830,227.699722 
	C159.924088,202.139603 143.024063,183.226105 120.110519,180.055710 
M71.079590,248.430542 
	C71.079910,249.596237 71.075089,250.761978 71.081345,251.927643 
	C71.140343,262.916077 75.924049,267.674347 86.981201,267.715637 
	C92.309944,267.735565 97.638832,267.719177 102.967651,267.719208 
	C106.202621,267.719208 109.437592,267.719208 112.817307,267.719208 
	C112.817307,259.502045 113.133949,252.168365 112.740761,244.872925 
	C112.193794,234.724335 106.107887,227.499969 96.310730,226.470322 
	C88.137962,225.611420 79.803177,226.294220 71.079720,226.294220 
	C71.079720,233.541321 71.079720,240.495834 71.079590,248.430542 
M186.059418,239.350220 
	C186.059631,240.016525 186.071671,240.683090 186.058029,241.349106 
	C185.990997,244.619629 185.761871,247.871490 190.540817,248.026245 
	C195.630966,248.191071 195.515945,244.824875 195.480927,241.318283 
	C195.434387,236.656708 195.469452,231.994308 195.469452,227.332260 
	C198.360291,229.588440 200.088943,231.983398 201.886398,234.325562 
	C205.804352,239.430801 208.402267,239.368912 212.341995,234.103683 
	C214.091995,231.764938 215.812668,229.404251 217.546677,227.053528 
	C218.651871,232.515350 218.720840,237.723114 218.626312,242.927917 
	C218.568466,246.113281 219.588486,247.969040 223.131607,248.032272 
	C226.914978,248.099823 228.061554,246.147568 228.037415,242.738846 
	C227.974884,233.910675 228.190063,225.076096 227.900589,216.257004 
	C227.825333,213.963882 226.938858,210.636154 225.312393,209.683853 
	C222.257843,207.895432 219.437241,209.768570 217.339813,212.692459 
	C214.094116,217.217148 210.585052,221.552948 206.956924,226.268768 
	C202.929581,220.981766 199.594528,215.966019 195.539703,211.622147 
	C194.097214,210.076843 190.845169,209.555206 188.543304,209.788925 
	C187.553940,209.889389 186.236862,213.081177 186.175430,214.905762 
	C185.912094,222.726105 186.060837,230.560318 186.059418,239.350220 
M285.587097,247.988266 
	C288.627045,247.969940 290.116638,246.593964 290.093140,243.401291 
	C290.014771,232.758728 290.025238,222.115067 290.079773,211.472229 
	C290.096161,208.268341 288.552307,206.998337 285.492218,206.995361 
	C282.498749,206.992447 280.743195,208.055420 280.839081,211.359512 
	C280.936279,214.708588 280.860535,218.062698 280.860535,221.682785 
	C271.413696,218.649338 264.161987,222.764801 262.327118,231.382950 
	C260.508789,239.923660 268.520508,249.678177 276.218292,247.641083 
	C279.414825,246.795151 281.957611,246.817673 285.587097,247.988266 
M416.267181,237.416382 
	C416.291107,239.746445 416.045380,242.124252 416.446014,244.387619 
	C416.665802,245.629410 417.824432,247.448212 418.827332,247.645309 
	C420.624756,247.998566 423.340363,247.997803 424.362030,246.912079 
	C425.706848,245.482925 425.786346,242.863098 426.532166,240.342010 
	C429.058258,242.618958 431.304993,244.763489 433.682159,246.752060 
	C435.899445,248.606827 438.067200,248.865646 440.127655,246.293854 
	C442.124878,243.800903 442.468353,241.691513 439.602631,239.565262 
	C437.385162,237.919998 435.357513,236.018951 433.552673,234.491608 
	C434.743347,230.169281 443.501312,229.484665 438.238251,223.531479 
	C432.558990,217.107574 430.532379,226.538895 425.749420,227.011612 
	C425.749420,222.550446 425.746613,218.126663 425.750336,213.702881 
	C425.753204,210.269775 426.000549,206.842056 420.863800,206.906433 
	C416.014282,206.967209 416.274292,210.223511 416.271698,213.465042 
	C416.265533,221.123779 416.268127,228.782516 416.267181,237.416382 
M360.658234,224.149597 
	C360.134735,224.794739 359.548462,225.399033 359.097656,226.091522 
	C355.703339,231.305603 355.841187,237.585190 359.425018,242.429626 
	C363.282166,247.643494 366.990173,248.629440 374.226440,246.526779 
	C374.913086,246.327255 375.866791,246.703979 376.593018,247.038040 
	C382.012360,249.530869 384.778778,247.813324 384.830078,241.798126 
	C384.876892,236.305267 384.926453,230.809738 384.808533,225.318970 
	C384.703339,220.418839 381.539886,218.636139 377.066223,220.707474 
	C376.092377,221.158401 374.661407,221.818466 373.945160,221.436569 
	C369.036835,218.819565 364.978180,220.279053 360.658234,224.149597 
M251.686493,248.319534 
	C253.669937,246.894180 255.933136,245.698471 257.430664,243.874222 
	C257.783844,243.444000 255.876099,240.142654 254.430756,239.534058 
	C252.958954,238.914368 250.736252,239.846634 248.911072,240.348999 
	C245.768677,241.213974 243.437622,240.637924 241.589798,237.043610 
	C244.990509,237.043610 247.648407,236.937851 250.294449,237.069855 
	C253.755875,237.242538 257.308167,237.218292 258.605957,233.343567 
	C259.994965,229.196442 258.537689,225.435593 255.333710,222.526840 
	C248.239746,216.086609 234.750656,220.085098 231.982376,229.391647 
	C228.438049,241.307129 236.930923,249.891617 251.686493,248.319534 
M318.384399,216.919556 
	C320.882935,216.913376 323.381653,216.886490 325.880005,216.906555 
	C328.651489,216.928818 330.250732,215.948120 330.175385,212.813019 
	C330.106384,209.945206 328.650330,209.039383 326.080139,209.045486 
	C316.419098,209.068451 306.752869,208.906448 297.102539,209.230316 
	C295.706543,209.277161 293.585205,211.393753 293.202026,212.907547 
	C292.451416,215.872986 294.650787,216.935150 297.407379,216.907562 
	C300.507599,216.876526 303.608398,216.900421 307.008148,216.900421 
	C307.008148,225.955353 307.062683,234.424377 306.979858,242.892044 
	C306.949127,246.033417 307.793732,247.994888 311.397705,248.080063 
	C315.187073,248.169647 316.290863,246.322113 316.225464,242.837769 
	C316.091064,235.677734 316.124176,228.512314 316.243927,221.351700 
	C316.268341,219.891861 316.977112,218.443466 318.384399,216.919556 
M412.162903,227.576447 
	C411.576904,225.780853 411.542999,223.288284 410.308960,222.310776 
	C405.061584,218.154205 396.568878,219.330032 391.727234,224.449738 
	C387.217041,229.219009 386.787537,237.000443 390.738495,242.364151 
	C394.823792,247.910309 403.320496,250.001831 409.042267,246.688232 
	C411.278198,245.393356 414.114838,243.962250 412.133118,240.543503 
	C410.521912,237.763870 408.605957,236.047455 404.816895,237.813568 
	C403.240753,238.548218 400.252045,237.847122 398.803528,236.682327 
	C397.886383,235.944839 397.875793,232.253479 398.796906,231.479446 
	C400.220154,230.283386 403.198944,229.526352 404.786255,230.231155 
	C408.099487,231.702316 410.133820,231.160797 412.162903,227.576447 
M350.975464,229.622452 
	C354.506409,227.882324 355.675049,224.326157 353.605804,221.808838 
	C350.382263,217.887344 346.115326,220.028442 342.451843,221.592804 
	C340.049194,220.797134 337.357025,219.937912 335.272583,220.712997 
	C334.038635,221.171799 333.248352,224.187363 333.156219,226.096588 
	C332.883545,231.743408 333.132446,237.413162 333.027466,243.071182 
	C332.966400,246.362167 334.233368,248.024277 337.669861,248.071304 
	C341.054993,248.117630 342.572235,246.620636 342.479889,243.269913 
	C342.411102,240.774979 342.466614,238.276245 342.484222,235.779343 
	C342.531830,229.029312 343.605133,228.186676 350.975464,229.622452 
M150.136353,183.645508 
	C150.148590,187.193817 152.100800,188.990952 155.415009,188.267792 
	C156.764877,187.973236 158.505447,186.004669 158.654129,184.643280 
	C158.803131,183.279083 157.055679,180.422684 156.372299,180.492722 
	C154.291946,180.705933 152.323959,182.015717 150.136353,183.645508 
z"/>
<path fill="#6171FF" opacity="1.000000" stroke="none" 
	d="
M120.560646,180.104065 
	C143.024063,183.226105 159.924088,202.139603 159.003830,227.699722 
	C158.692276,236.352875 159.047775,245.027985 158.921570,253.690475 
	C158.804810,261.704773 154.392014,267.106293 146.760010,267.486633 
	C137.150009,267.965485 127.498032,267.602051 116.652199,267.602051 
	C117.201431,257.887634 116.957886,248.391068 118.511703,239.198288 
	C119.697197,232.184570 125.750626,228.344757 132.386627,226.070236 
	C133.875549,225.559891 135.392975,225.132751 137.938004,224.345306 
	C132.352905,221.140213 127.041061,219.273163 123.431747,215.690781 
	C119.771294,212.057648 117.792503,206.730209 114.627739,201.385849 
	C113.947327,202.968704 113.299812,204.141891 112.926086,205.396622 
	C109.661934,216.355560 102.774498,221.569977 91.268539,221.650391 
	C84.796303,221.695618 78.323494,221.658539 71.297203,221.658539 
	C71.455994,212.285126 74.502716,204.407288 79.853149,197.452682 
	C90.009644,184.251038 103.551544,178.589432 120.560646,180.104065 
z"/>
<path fill="#6171FF" opacity="1.000000" stroke="none" 
	d="
M71.079651,247.940460 
	C71.079720,240.495834 71.079720,233.541321 71.079720,226.294220 
	C79.803177,226.294220 88.137962,225.611420 96.310730,226.470322 
	C106.107887,227.499969 112.193794,234.724335 112.740761,244.872925 
	C113.133949,252.168365 112.817307,259.502045 112.817307,267.719208 
	C109.437592,267.719208 106.202621,267.719208 102.967651,267.719208 
	C97.638832,267.719177 92.309944,267.735565 86.981201,267.715637 
	C75.924049,267.674347 71.140343,262.916077 71.081345,251.927643 
	C71.075089,250.761978 71.079910,249.596237 71.079651,247.940460 
z"/>
<path fill="#051070" opacity="1.000000" stroke="none" 
	d="
M186.059387,238.869843 
	C186.060837,230.560318 185.912094,222.726105 186.175430,214.905762 
	C186.236862,213.081177 187.553940,209.889389 188.543304,209.788925 
	C190.845169,209.555206 194.097214,210.076843 195.539703,211.622147 
	C199.594528,215.966019 202.929581,220.981766 206.956924,226.268768 
	C210.585052,221.552948 214.094116,217.217148 217.339813,212.692459 
	C219.437241,209.768570 222.257843,207.895432 225.312393,209.683853 
	C226.938858,210.636154 227.825333,213.963882 227.900589,216.257004 
	C228.190063,225.076096 227.974884,233.910675 228.037415,242.738846 
	C228.061554,246.147568 226.914978,248.099823 223.131607,248.032272 
	C219.588486,247.969040 218.568466,246.113281 218.626312,242.927917 
	C218.720840,237.723114 218.651871,232.515350 217.546677,227.053528 
	C215.812668,229.404251 214.091995,231.764938 212.341995,234.103683 
	C208.402267,239.368912 205.804352,239.430801 201.886398,234.325562 
	C200.088943,231.983398 198.360291,229.588440 195.469452,227.332260 
	C195.469452,231.994308 195.434387,236.656708 195.480927,241.318283 
	C195.515945,244.824875 195.630966,248.191071 190.540817,248.026245 
	C185.761871,247.871490 185.990997,244.619629 186.058029,241.349106 
	C186.071671,240.683090 186.059631,240.016525 186.059387,238.869843 
z"/>
<path fill="#051070" opacity="1.000000" stroke="none" 
	d="
M285.179993,247.986328 
	C281.957611,246.817673 279.414825,246.795151 276.218292,247.641083 
	C268.520508,249.678177 260.508789,239.923660 262.327118,231.382950 
	C264.161987,222.764801 271.413696,218.649338 280.860535,221.682785 
	C280.860535,218.062698 280.936279,214.708588 280.839081,211.359512 
	C280.743195,208.055420 282.498749,206.992447 285.492218,206.995361 
	C288.552307,206.998337 290.096161,208.268341 290.079773,211.472229 
	C290.025238,222.115067 290.014771,232.758728 290.093140,243.401291 
	C290.116638,246.593964 288.627045,247.969940 285.179993,247.986328 
M271.648743,233.003769 
	C271.111877,236.280060 272.768860,238.399475 275.772247,238.468887 
	C277.248291,238.503036 279.760895,236.716599 280.019775,235.402435 
	C280.337189,233.791199 278.911743,230.364594 278.018768,230.287643 
	C276.046295,230.117676 273.935425,231.554016 271.648743,233.003769 
z"/>
<path fill="#071271" opacity="1.000000" stroke="none" 
	d="
M416.267181,236.928818 
	C416.268127,228.782516 416.265533,221.123779 416.271698,213.465042 
	C416.274292,210.223511 416.014282,206.967209 420.863800,206.906433 
	C426.000549,206.842056 425.753204,210.269775 425.750336,213.702881 
	C425.746613,218.126663 425.749420,222.550446 425.749420,227.011612 
	C430.532379,226.538895 432.558990,217.107574 438.238251,223.531479 
	C443.501312,229.484665 434.743347,230.169281 433.552673,234.491608 
	C435.357513,236.018951 437.385162,237.919998 439.602631,239.565262 
	C442.468353,241.691513 442.124878,243.800903 440.127655,246.293854 
	C438.067200,248.865646 435.899445,248.606827 433.682159,246.752060 
	C431.304993,244.763489 429.058258,242.618958 426.532166,240.342010 
	C425.786346,242.863098 425.706848,245.482925 424.362030,246.912079 
	C423.340363,247.997803 420.624756,247.998566 418.827332,247.645309 
	C417.824432,247.448212 416.665802,245.629410 416.446014,244.387619 
	C416.045380,242.124252 416.291107,239.746445 416.267181,236.928818 
z"/>
<path fill="#071271" opacity="1.000000" stroke="none" 
	d="
M360.916748,223.889191 
	C364.978180,220.279053 369.036835,218.819565 373.945160,221.436569 
	C374.661407,221.818466 376.092377,221.158401 377.066223,220.707474 
	C381.539886,218.636139 384.703339,220.418839 384.808533,225.318970 
	C384.926453,230.809738 384.876892,236.305267 384.830078,241.798126 
	C384.778778,247.813324 382.012360,249.530869 376.593018,247.038040 
	C375.866791,246.703979 374.913086,246.327255 374.226440,246.526779 
	C366.990173,248.629440 363.282166,247.643494 359.425018,242.429626 
	C355.841187,237.585190 355.703339,231.305603 359.097656,226.091522 
	C359.548462,225.399033 360.134735,224.794739 360.916748,223.889191 
M368.381226,230.007126 
	C365.896606,231.846741 364.805023,234.286911 367.105164,236.660233 
	C368.188782,237.778381 370.872253,238.488297 372.193024,237.914703 
	C373.525818,237.335861 374.914337,234.863754 374.780304,233.354141 
	C374.510132,230.311432 372.291718,228.889099 368.381226,230.007126 
z"/>
<path fill="#071271" opacity="1.000000" stroke="none" 
	d="
M251.274719,248.397705 
	C236.930923,249.891617 228.438049,241.307129 231.982376,229.391647 
	C234.750656,220.085098 248.239746,216.086609 255.333710,222.526840 
	C258.537689,225.435593 259.994965,229.196442 258.605957,233.343567 
	C257.308167,237.218292 253.755875,237.242538 250.294449,237.069855 
	C247.648407,236.937851 244.990509,237.043610 241.589798,237.043610 
	C243.437622,240.637924 245.768677,241.213974 248.911072,240.348999 
	C250.736252,239.846634 252.958954,238.914368 254.430756,239.534058 
	C255.876099,240.142654 257.783844,243.444000 257.430664,243.874222 
	C255.933136,245.698471 253.669937,246.894180 251.274719,248.397705 
M241.791840,230.994751 
	C244.327393,231.446060 246.862946,231.897354 250.078140,232.469635 
	C247.902832,227.051529 246.525208,226.874390 241.791840,230.994751 
z"/>
<path fill="#071271" opacity="1.000000" stroke="none" 
	d="
M317.877411,216.954681 
	C316.977112,218.443466 316.268341,219.891861 316.243927,221.351700 
	C316.124176,228.512314 316.091064,235.677734 316.225464,242.837769 
	C316.290863,246.322113 315.187073,248.169647 311.397705,248.080063 
	C307.793732,247.994888 306.949127,246.033417 306.979858,242.892044 
	C307.062683,234.424377 307.008148,225.955353 307.008148,216.900421 
	C303.608398,216.900421 300.507599,216.876526 297.407379,216.907562 
	C294.650787,216.935150 292.451416,215.872986 293.202026,212.907547 
	C293.585205,211.393753 295.706543,209.277161 297.102539,209.230316 
	C306.752869,208.906448 316.419098,209.068451 326.080139,209.045486 
	C328.650330,209.039383 330.106384,209.945206 330.175385,212.813019 
	C330.250732,215.948120 328.651489,216.928818 325.880005,216.906555 
	C323.381653,216.886490 320.882935,216.913376 317.877411,216.954681 
z"/>
<path fill="#071271" opacity="1.000000" stroke="none" 
	d="
M412.011414,227.902466 
	C410.133820,231.160797 408.099487,231.702316 404.786255,230.231155 
	C403.198944,229.526352 400.220154,230.283386 398.796906,231.479446 
	C397.875793,232.253479 397.886383,235.944839 398.803528,236.682327 
	C400.252045,237.847122 403.240753,238.548218 404.816895,237.813568 
	C408.605957,236.047455 410.521912,237.763870 412.133118,240.543503 
	C414.114838,243.962250 411.278198,245.393356 409.042267,246.688232 
	C403.320496,250.001831 394.823792,247.910309 390.738495,242.364151 
	C386.787537,237.000443 387.217041,229.219009 391.727234,224.449738 
	C396.568878,219.330032 405.061584,218.154205 410.308960,222.310776 
	C411.542999,223.288284 411.576904,225.780853 412.011414,227.902466 
z"/>
<path fill="#071271" opacity="1.000000" stroke="none" 
	d="
M350.593658,229.656097 
	C343.605133,228.186676 342.531830,229.029312 342.484222,235.779343 
	C342.466614,238.276245 342.411102,240.774979 342.479889,243.269913 
	C342.572235,246.620636 341.054993,248.117630 337.669861,248.071304 
	C334.233368,248.024277 332.966400,246.362167 333.027466,243.071182 
	C333.132446,237.413162 332.883545,231.743408 333.156219,226.096588 
	C333.248352,224.187363 334.038635,221.171799 335.272583,220.712997 
	C337.357025,219.937912 340.049194,220.797134 342.451843,221.592804 
	C346.115326,220.028442 350.382263,217.887344 353.605804,221.808838 
	C355.675049,224.326157 354.506409,227.882324 350.593658,229.656097 
z"/>
<path fill="#6171FF" opacity="1.000000" stroke="none" 
	d="
M150.224304,183.272064 
	C152.323959,182.015717 154.291946,180.705933 156.372299,180.492722 
	C157.055679,180.422684 158.803131,183.279083 158.654129,184.643280 
	C158.505447,186.004669 156.764877,187.973236 155.415009,188.267792 
	C152.100800,188.990952 150.148590,187.193817 150.224304,183.272064 
z"/>
<path fill="#FFFFFF" opacity="1.000000" stroke="none" 
	d="
M271.764893,232.669403 
	C273.935425,231.554016 276.046295,230.117676 278.018768,230.287643 
	C278.911743,230.364594 280.337189,233.791199 280.019775,235.402435 
	C279.760895,236.716599 277.248291,238.503036 275.772247,238.468887 
	C272.768860,238.399475 271.111877,236.280060 271.764893,232.669403 
z"/>
<path fill="#FFFFFF" opacity="1.000000" stroke="none" 
	d="
M368.728455,229.882050 
	C372.291718,228.889099 374.510132,230.311432 374.780304,233.354141 
	C374.914337,234.863754 373.525818,237.335861 372.193024,237.914703 
	C370.872253,238.488297 368.188782,237.778381 367.105164,236.660233 
	C364.805023,234.286911 365.896606,231.846741 368.728455,229.882050 
z"/>
<path fill="#FFFFFF" opacity="1.000000" stroke="none" 
	d="
M241.963287,230.605194 
	C246.525208,226.874390 247.902832,227.051529 250.078140,232.469635 
	C246.862946,231.897354 244.327393,231.446060 241.963287,230.605194 
z"/>
</svg>